<svg width="36" height="53" viewBox="0 0 36 53" fill="none" xmlns="http://www.w3.org/2000/svg">
<g clip-path="url(#clip0_78_66)">
<path d="M7.89001 31.0124L3.86261 29.5356C3.61604 29.4536 3.36946 29.6177 3.32837 29.8638C3.28727 30.274 3.24617 30.7252 3.20508 31.1355C3.20508 31.2585 3.24617 31.4226 3.36946 31.5046C3.9448 31.9149 4.47905 32.243 5.05439 32.6122C5.13658 32.6943 5.30097 32.6943 5.38316 32.6533L7.89001 31.7508C8.25987 31.6277 8.25987 31.1355 7.89001 31.0124ZM16.7256 27.8127L10.3147 25.4745L3.90371 27.8127C3.78042 27.8537 3.69823 27.9768 3.65713 28.0998C3.61604 28.305 3.69823 28.5101 3.90371 28.5511L10.1914 30.8483C10.2736 30.8893 10.3558 30.8893 10.438 30.8483L16.7256 28.5511C17.0544 28.428 17.0544 27.9358 16.7256 27.8127ZM25.5201 24.613L19.1092 22.2748L12.6982 24.613C12.3695 24.7361 12.3695 25.2283 12.6982 25.3514L19.1092 27.6896L25.5201 25.3514C25.89 25.2283 25.89 24.7361 25.5201 24.613ZM32.1777 22.4799C31.7256 21.6594 31.1914 20.88 30.6571 20.1416C30.616 20.1006 30.5338 20.0186 30.4927 20.0186L28.0681 19.1571C27.9859 19.1161 27.9037 19.1161 27.7804 19.1571L21.4927 21.4543C21.164 21.5774 21.164 22.0697 21.4927 22.1927L27.9448 24.4899L31.9722 23.0132C32.1777 22.9311 32.301 22.685 32.1777 22.4799ZM16.7256 34.2121L10.438 31.9149C10.3558 31.8738 10.2736 31.8738 10.1914 31.9149L7.06809 33.0635C6.73932 33.1865 6.73932 33.5968 6.9859 33.7608C8.75302 34.7864 10.5201 35.6478 12.3284 36.4272C12.4106 36.4683 12.5338 36.4683 12.616 36.4272L16.7667 34.9094C17.0544 34.8274 17.0544 34.3351 16.7256 34.2121ZM25.5201 31.0124L19.2325 28.7152C19.1503 28.6742 19.0681 28.6742 18.9859 28.7152L12.6982 31.0124C12.3695 31.1355 12.3695 31.6277 12.6982 31.7508L18.9859 34.048C19.0681 34.089 19.1503 34.089 19.2325 34.048L25.5201 31.7508C25.89 31.6277 25.89 31.1355 25.5201 31.0124ZM34.3147 28.2229C34.3147 28.1409 34.2736 28.0588 34.2736 27.9768C34.2325 27.8537 34.1503 27.7307 34.027 27.6896L27.9448 25.5155L21.5338 27.8537C21.2051 27.9768 21.2051 28.469 21.5338 28.5921L27.9448 30.8893L34.1092 28.6742C34.2736 28.5921 34.3558 28.387 34.3147 28.2229ZM33.6982 25.8847C33.4927 25.2283 33.2462 24.613 32.9585 24.0387C32.8763 23.8336 32.6708 23.7515 32.4653 23.8336L30.3284 24.613C29.9996 24.7361 29.9996 25.2283 30.3284 25.3514L33.2051 26.3769C33.4927 26.5 33.7804 26.2128 33.6982 25.8847ZM33.0818 40.1602L19.2325 35.1556C19.1503 35.1146 19.0681 35.1146 18.9859 35.1556L14.7119 36.7144C14.3832 36.8375 14.3832 37.3297 14.7119 37.4528C21.4927 39.9961 27.9859 40.8576 32.8763 41.0627C33.0407 41.0627 33.2051 40.9806 33.2462 40.8166C33.2873 40.7755 33.2873 40.7345 33.2873 40.6935C33.3695 40.4884 33.2873 40.2423 33.0818 40.1602ZM34.438 34.2531L28.0681 31.9149C27.9859 31.8738 27.9037 31.8738 27.7804 31.9149L21.4927 34.2121C21.164 34.3351 21.164 34.8274 21.4927 34.9505L33.3284 39.2577C33.5338 39.3398 33.7804 39.2167 33.8215 39.0116C34.2325 37.6169 34.5201 36.1811 34.6434 34.6633C34.7256 34.4992 34.6023 34.3351 34.438 34.2531ZM34.6023 29.9868C34.5612 29.7407 34.3147 29.5766 34.0681 29.6587L30.2873 31.0124C29.9585 31.1355 29.9585 31.6277 30.2873 31.7508L34.7256 33.3916C34.7256 33.1865 34.7256 32.9814 34.7256 32.7763C34.8078 31.7918 34.7256 30.8893 34.6023 29.9868ZM7.89001 24.613L5.46535 23.7515C5.25987 23.6695 5.05439 23.7515 4.9722 23.9567C4.68453 24.613 4.39686 25.3104 4.15028 26.0077C4.06809 26.3359 4.35576 26.6231 4.64343 26.5L7.84891 25.3514C8.25987 25.2283 8.25987 24.7361 7.89001 24.613ZM16.7256 21.4133L10.438 19.1161C10.3558 19.0751 10.2736 19.0751 10.1914 19.1161L7.39686 20.1416C7.31467 20.1827 7.27357 20.2237 7.23248 20.2647C6.73932 20.9211 6.28727 21.6184 5.87631 22.3568C5.75302 22.5619 5.87631 22.8491 6.08179 22.9311L10.3558 24.4899L16.7256 22.1517C17.0544 22.0286 17.0544 21.5364 16.7256 21.4133ZM25.5201 18.2136L19.2325 15.9164C19.1503 15.8754 19.0681 15.8754 18.9859 15.9164L12.6982 18.2136C12.3695 18.3367 12.3695 18.8289 12.6982 18.952L18.9859 21.2492C19.0681 21.2902 19.1503 21.2902 19.2325 21.2492L25.5201 18.952C25.89 18.8289 25.89 18.3367 25.5201 18.2136ZM22.8489 14.6037C22.7667 14.5627 22.6845 14.6037 22.6023 14.6037L21.5338 14.9729C21.2051 15.096 21.2051 15.5882 21.5338 15.7113L27.7804 18.0495C27.8626 18.0906 27.9448 18.0906 28.0681 18.0495L28.5612 17.8854C26.8763 16.3676 24.9448 15.2601 22.8489 14.6037ZM16.7256 15.0139L15.5338 14.5627C15.4517 14.5217 15.3695 14.5217 15.2873 14.5627C13.3969 15.096 11.5886 16.0395 10.027 17.3522C9.78042 17.5573 9.86261 17.9265 10.1503 18.0085H10.1914C10.2736 18.0495 10.3558 18.0495 10.438 18.0085L16.7256 15.7113C17.0544 15.6293 17.0544 15.137 16.7256 15.0139ZM19.1503 14.0704C19.0681 14.0704 19.027 14.0704 18.9448 14.0704C18.3284 14.0704 17.753 14.1115 17.1366 14.1935L18.9448 14.8498C19.027 14.8909 19.1092 14.8909 19.1914 14.8498H19.2325C19.6845 14.6447 19.6023 14.0704 19.1503 14.0704Z" fill="white"/>
<path d="M25.8493 5.66099L21.0822 8.94272L20.1781 9.55805L19.8082 9.8452L15.8219 12.5937C16.8904 12.3065 18.0411 12.1834 19.2329 12.1834C20.7123 12.1834 22.1096 12.4296 23.4657 12.8398L23.589 12.5116L23.7534 12.1014L26.3014 5.33282L25.8493 5.66099ZM16.8082 6.07121L20.0959 8.36842L21.5342 7.34288L23.7945 0L16.8082 6.07121ZM16.1918 6.68653L12.2466 3.93808L11.7534 3.60991L13.726 8.81966L13.8493 9.18885L14.9589 12.0604L15.2466 11.8553L19.0685 9.18885L19.4383 8.94272L16.1918 6.68653Z" fill="white"/>
<path d="M35.6301 44.7136C36.2055 44.5495 36.0822 43.8932 35.5068 43.8522C28.6027 43.2779 9.12327 41.2268 3.78081 35.2786C-2.71234 28.1409 -5.50686 56.733 35.6301 44.7136Z" fill="white"/>
<path d="M4.56132 46.2725C7.89009 48.1595 19.6435 53.7794 32.1778 47.257C32.3832 47.1339 32.5476 47.4621 32.3832 47.5851C27.0819 51.2771 14.2189 58.1687 4.35584 46.5596C4.19146 46.3955 4.39694 46.1494 4.56132 46.2725Z" fill="white"/>
</g>
<defs>
<clipPath id="clip0_78_66">
<rect width="36" height="53" fill="white"/>
</clipPath>
</defs>
</svg>
