<svg
	viewBox="0 0 1048 252"
	xmlns="http://www.w3.org/2000/svg"
	preserveAspectRatio="xMidYMid meet">
	<rect width="1048" height="252" rx="32" fill="#F3F4F4" />
	<path
	d="M528.5 120V114H513.5V138H534.5V120H528.5ZM510.5 112.488C510.5 111.666 511.171 111 511.998 111H530L537.5 118.5L537.5 139.489C537.5 140.323 536.833 141 536.01 141H511.99C511.167 141 510.5 140.317 510.5 139.512V112.488ZM522.5 122.25C522.5 123.493 521.493 124.5 520.25 124.5C519.007 124.5 518 123.493 518 122.25C518 121.007 519.007 120 520.25 120C521.493 120 522.5 121.007 522.5 122.25ZM532.25 133.5L526.25 123L518 133.5H532.25Z"
	fill="#868F99"/>
</svg>