<svg width="40" height="53" viewBox="0 0 40 53" fill="none" xmlns="http://www.w3.org/2000/svg">
<g clip-path="url(#clip0_78_3)">
<path d="M21.9698 28.9855L21.268 26.5741C21.179 26.2654 20.8503 26.0855 20.534 26.173L18.8709 26.6422C18.3519 25.6844 17.6673 24.8458 16.8617 24.1579L17.7019 22.6702C17.8601 22.3882 17.7563 22.0333 17.4721 21.8777L15.243 20.6623C14.9564 20.5067 14.5956 20.6088 14.4374 20.8884L13.5996 22.3736C12.579 22.0649 11.4916 21.9361 10.3919 22.0114L9.91744 20.3779C9.82847 20.0692 9.49979 19.8893 9.18347 19.9768L6.73197 20.6671C6.41812 20.7547 6.23524 21.078 6.32421 21.3891L6.79869 23.0226C5.82501 23.5331 4.97242 24.2065 4.27058 25.0014L2.75816 24.1773C2.4715 24.0217 2.11069 24.1238 1.95253 24.4034L0.716895 26.596C0.558733 26.878 0.662527 27.2329 0.946723 27.3885L2.45914 28.2125C2.14529 29.2165 2.01678 30.286 2.09339 31.3678L0.432698 31.8369C0.118847 31.9244 -0.0640272 32.2478 0.0249386 32.5589L0.72678 34.9703C0.815746 35.279 1.14442 35.4589 1.46075 35.3714L3.12391 34.9023C3.64041 35.86 4.32742 36.6962 5.13306 37.3842L4.29282 38.8743C4.13466 39.1563 4.23846 39.5112 4.52265 39.6667L6.75174 40.8846C7.03841 41.0402 7.39921 40.9381 7.55737 40.6585L8.39761 39.1684C9.41824 39.4747 10.5031 39.6035 11.6028 39.5306L12.0798 41.169C12.1688 41.4777 12.4974 41.6576 12.8138 41.5701L15.2653 40.8797C15.5791 40.7922 15.762 40.4689 15.673 40.1578L15.1961 38.5194C16.1698 38.0113 17.0199 37.338 17.7192 36.5455L19.2341 37.372C19.5208 37.5276 19.8816 37.4255 20.0398 37.1459L21.2779 34.9533C21.436 34.6713 21.3322 34.3164 21.048 34.1608L19.5332 33.3343C19.847 32.3304 19.978 31.2633 19.9014 30.1815L21.5645 29.7124C21.8784 29.6249 22.0613 29.3016 21.9723 28.9904L21.9698 28.9855ZM13.224 37.1459C9.37129 38.4416 5.24179 36.1882 4.32001 32.2891C3.53167 28.9491 5.47162 25.5094 8.77077 24.3985C12.6235 23.1029 16.753 25.3563 17.6723 29.2554C18.4606 32.5954 16.5207 36.035 13.2215 37.1459H13.224Z" fill="white"/>
<path d="M9.1089 24.294C5.47119 25.3198 3.36566 29.0512 4.40854 32.6294C5.45141 36.2076 9.24482 38.2787 12.8825 37.2529C16.5202 36.2271 18.6258 32.4957 17.5829 28.9175C16.54 25.3393 12.7466 23.2682 9.1089 24.294ZM12.0349 34.3383C10.0332 34.9023 7.94493 33.7622 7.37159 31.7932C6.79826 29.8242 7.95728 27.7701 9.95901 27.2062C11.9607 26.6422 14.049 27.7823 14.6223 29.7513C15.1956 31.7203 14.0366 33.7743 12.0349 34.3383Z" fill="white"/>
<path d="M39.9776 19.3837L39.2758 16.9723C39.1868 16.6635 38.8582 16.4837 38.5418 16.5712L36.8787 17.0403C36.3597 16.0826 35.6752 15.2439 34.8695 14.556L35.7098 13.0683C35.8679 12.7863 35.7641 12.4314 35.4799 12.2758L33.2508 11.0604C32.9642 10.9048 32.6034 11.0069 32.4452 11.2865L31.6074 12.7717C30.5868 12.463 29.4994 12.3342 28.3997 12.4095L27.9253 10.776C27.8363 10.4673 27.5076 10.2874 27.1913 10.3749L24.7398 11.0653C24.4259 11.1528 24.2431 11.4761 24.332 11.7872L24.8065 13.4208C23.8328 13.9313 22.9802 14.6046 22.2784 15.3995L20.766 14.5754C20.4793 14.4199 20.1185 14.522 19.9603 14.8015L18.7247 16.9941C18.5665 17.2761 18.6703 17.631 18.9545 17.7866L20.467 18.6107C20.1531 19.6146 20.0246 20.6842 20.1012 21.7659L18.4405 22.2351C18.1267 22.3226 17.9438 22.6459 18.0328 22.957L18.7346 25.3684C18.8236 25.6772 19.1522 25.857 19.4686 25.7695L21.1317 25.3004C21.6482 26.2581 22.3352 27.0944 23.1409 27.7823L22.3006 29.2724C22.1425 29.5544 22.2463 29.9093 22.5305 30.0649L24.7596 31.2827C25.0462 31.4383 25.407 31.3362 25.5652 31.0567L26.4054 29.5665C27.4261 29.8728 28.5109 30.0017 29.6107 29.9287L30.0876 31.5671C30.1766 31.8759 30.5053 32.0557 30.8216 31.9682L33.2731 31.2779C33.5869 31.1904 33.7698 30.867 33.6808 30.5559L33.2039 28.9175C34.1776 28.4095 35.0277 27.7361 35.7271 26.9436L37.2419 27.7701C37.5286 27.9257 37.8894 27.8236 38.0476 27.5441L39.2857 25.3514C39.4438 25.0695 39.3401 24.7145 39.0559 24.559L37.541 23.7325C37.8548 22.7285 37.9858 21.6614 37.9092 20.5797L39.5724 20.1105C39.8862 20.023 40.0691 19.6997 39.9801 19.3885L39.9776 19.3837ZM31.2293 27.5441C27.3766 28.8397 23.2471 26.5863 22.3253 22.6872C21.537 19.3472 23.477 15.9075 26.7761 14.7966C30.6288 13.501 34.7583 15.7544 35.6776 19.6535C36.466 22.9935 34.526 26.4332 31.2269 27.5441H31.2293Z" fill="white"/>
<path d="M27.1172 14.6921C23.4795 15.7179 21.374 19.4493 22.4168 23.0275C23.4597 26.6057 27.2531 28.6768 30.8908 27.651C34.5285 26.6252 36.6341 22.8938 35.5912 19.3156C34.5483 15.7374 30.7549 13.6663 27.1172 14.6921ZM30.0407 24.734C28.039 25.2979 25.9508 24.1579 25.3774 22.1889C24.8041 20.2199 25.9631 18.1658 27.9648 17.6018C29.9666 17.0379 32.0548 18.178 32.6281 20.147C33.2015 22.1159 32.0424 24.17 30.0407 24.734Z" fill="white"/>
<path d="M39.0733 38.7114L37.9217 36.5552C37.7734 36.2781 37.4249 36.1712 37.1457 36.317L35.6604 37.0852C34.9759 36.2757 34.1579 35.6121 33.2534 35.1137L33.7526 33.5361C33.8465 33.2371 33.6785 32.9211 33.3745 32.8263L31.012 32.1043C30.708 32.012 30.3868 32.1773 30.2904 32.4763L29.7912 34.0515C28.7582 33.9566 27.7005 34.0442 26.67 34.331L25.8915 32.8725C25.7432 32.5954 25.3948 32.4884 25.1155 32.6343L22.9235 33.767C22.6418 33.9129 22.5331 34.2556 22.6813 34.5303L23.4598 35.9888C22.6368 36.6622 21.9622 37.4692 21.4556 38.3589L19.8542 37.8679C19.5502 37.7755 19.229 37.9408 19.1326 38.2398L18.3961 40.5637C18.3022 40.8627 18.4703 41.1787 18.7742 41.2735L20.3756 41.7646C20.2793 42.7807 20.3707 43.8211 20.6598 44.8347L19.1746 45.6029C18.8929 45.7487 18.7841 46.0915 18.9324 46.3662L20.084 48.5224C20.2323 48.7995 20.5807 48.9064 20.86 48.7606L22.3452 47.9924C23.0298 48.8019 23.8478 49.4631 24.7523 49.9614L24.2531 51.5415C24.1591 51.8405 24.3272 52.1565 24.6312 52.2513L26.9937 52.9757C27.2977 53.0681 27.6189 52.9028 27.7153 52.6038L28.2145 51.0237C29.245 51.1185 30.3027 51.0286 31.3332 50.7442L32.1142 52.2075C32.2624 52.4846 32.6109 52.5916 32.8901 52.4458L35.0822 51.313C35.3639 51.1671 35.4726 50.8244 35.3244 50.5497L34.5434 49.0863C35.3664 48.413 36.0386 47.6083 36.5452 46.7187L38.1515 47.2097C38.4555 47.3021 38.7767 47.1368 38.8731 46.8378L39.6095 44.5139C39.7034 44.2149 39.5354 43.8989 39.2314 43.8041L37.6251 43.313C37.7215 42.2969 37.6325 41.2589 37.3434 40.2453L38.8311 39.4771C39.1128 39.3313 39.2215 38.9885 39.0733 38.7138V38.7114ZM32.3984 48.165C28.9979 50.1437 24.6213 48.8043 22.9631 45.2772C21.5445 42.2556 22.6962 38.6093 25.6098 36.915C29.0103 34.9363 33.3869 36.2757 35.0451 39.8029C36.4636 42.8244 35.312 46.4707 32.3984 48.165Z" fill="white"/>
<path d="M25.9112 36.7473C22.659 38.427 21.4085 42.382 23.1162 45.581C24.8238 48.78 28.8446 50.0101 32.0968 48.3303C35.349 46.6506 36.5994 42.6956 34.8918 39.4966C33.1841 36.2976 29.1634 35.0676 25.9112 36.7473ZM30.7054 45.7244C28.9162 46.6482 26.7045 45.9724 25.7654 44.2125C24.8263 42.4525 25.5133 40.2769 27.3025 39.3532C29.0917 38.4294 31.3035 39.1052 32.2426 40.8652C33.1817 42.6251 32.4946 44.8007 30.7054 45.7244Z" fill="white"/>
<path d="M19.4144 14.1816C18.6953 13.6055 18.1047 12.8544 17.7167 11.9574C17.5931 11.6706 17.4943 11.3788 17.4177 11.0847C17.3707 10.9048 17.173 10.8076 16.9975 10.8805L14.6968 11.8431C14.551 11.9039 14.4768 12.0619 14.5238 12.2102C14.6202 12.5262 14.7339 12.8398 14.8698 13.1485C15.5173 14.6459 16.5354 15.8784 17.776 16.7826C17.9366 16.9018 18.1689 16.8386 18.2455 16.6538C18.5544 15.9221 18.9647 15.2318 19.4639 14.6022C19.5677 14.4709 19.5454 14.2837 19.4144 14.1816Z" fill="white"/>
<path d="M19.7677 12.8276C20.3558 13.0318 21.0725 12.356 21.4951 12.0498C22.9482 10.9996 24.2333 9.72342 25.286 8.28192C26.5291 6.58032 27.4706 4.44846 26.9418 2.41626C26.7169 1.54845 26.2375 0.76571 25.7655 -0.00244141C24.5792 0.695215 23.2991 1.23 22.0981 1.89849C20.8946 2.56698 19.743 3.40076 18.9917 4.54083C17.7857 6.36884 17.7758 8.78268 18.5222 10.8343C18.7322 11.4129 19.1103 12.5943 19.7701 12.8228L19.7677 12.8276Z" fill="white"/>
</g>
<defs>
<clipPath id="clip0_78_3">
<rect width="40" height="53" fill="white"/>
</clipPath>
</defs>
</svg>
